<svg width="143" height="180" viewBox="0 0 143 180" fill="none" xmlns="http://www.w3.org/2000/svg">
<g clip-path="url(#clip0_5_27)">
<path d="M27.6228 20.244C38.5385 15.252 54.054 12 71.5 12C88.946 12 104.462 15.24 115.377 20.244C126.841 25.5 131.083 31.524 131.083 36C131.083 40.488 126.841 46.5 115.377 51.756C104.462 56.748 88.946 60 71.5 60C54.054 60 38.5385 56.76 27.6228 51.756C16.159 46.5 11.9167 40.476 11.9167 36C11.9167 31.512 16.159 25.5 27.6228 20.244ZM131.083 56.376V72C131.083 76.488 126.841 82.5 115.377 87.756C104.462 92.748 88.946 96 71.5 96C54.054 96 38.5385 92.76 27.6228 87.756C16.159 82.5 11.9167 76.476 11.9167 72V56.376C15.1461 58.8 18.8283 60.912 22.6893 62.676C35.4878 68.532 52.7551 72 71.5 72C90.2449 72 107.512 68.532 120.311 62.676C124.11 60.9608 127.721 58.8493 131.083 56.376ZM143 36C143 23.916 132.573 14.94 120.311 9.324C107.512 3.468 90.2449 0 71.5 0C52.7551 0 35.4878 3.468 22.6893 9.324C10.4271 14.94 0 23.916 0 36V144C0 156.084 10.4271 165.06 22.6893 170.676C35.4878 176.52 52.7551 180 71.5 180C90.2449 180 107.512 176.532 120.311 170.676C132.573 165.06 143 156.084 143 144V36ZM131.083 92.376V108C131.083 112.488 126.841 118.5 115.377 123.756C104.462 128.748 88.946 132 71.5 132C54.054 132 38.5385 128.76 27.6228 123.756C16.159 118.5 11.9167 112.476 11.9167 108V92.376C15.1461 94.8 18.8283 96.912 22.6893 98.676C35.4878 104.52 52.7551 108 71.5 108C90.2449 108 107.512 104.532 120.311 98.676C124.11 96.9608 127.721 94.8493 131.083 92.376ZM131.083 128.376V144C131.083 148.488 126.841 154.5 115.377 159.756C104.462 164.748 88.946 168 71.5 168C54.054 168 38.5385 164.76 27.6228 159.756C16.159 154.5 11.9167 148.476 11.9167 144V128.376C15.1461 130.8 18.8283 132.912 22.6893 134.676C35.4878 140.52 52.7551 144 71.5 144C90.2449 144 107.512 140.532 120.311 134.676C124.172 132.912 127.854 130.8 131.083 128.376Z" fill="white"/>
</g>
<defs>
<clipPath id="clip0_5_27">
<rect width="143" height="180" fill="white"/>
</clipPath>
</defs>
</svg>
