<svg width="304" height="180" viewBox="0 0 304 180" fill="none" xmlns="http://www.w3.org/2000/svg">
<rect width="33" height="39" rx="8" fill="#FF4D6D"/>
<path d="M18.3239 16.7102C18.2784 16.2519 18.0833 15.8958 17.7386 15.642C17.3939 15.3883 16.9261 15.2614 16.3352 15.2614C15.9337 15.2614 15.5947 15.3182 15.3182 15.4318C15.0417 15.5417 14.8295 15.6951 14.6818 15.892C14.5379 16.089 14.4659 16.3125 14.4659 16.5625C14.4583 16.7708 14.5019 16.9527 14.5966 17.108C14.6951 17.2633 14.8295 17.3977 15 17.5114C15.1705 17.6212 15.3674 17.7178 15.5909 17.8011C15.8144 17.8807 16.053 17.9489 16.3068 18.0057L17.3523 18.2557C17.8598 18.3693 18.3258 18.5208 18.75 18.7102C19.1742 18.8996 19.5417 19.1326 19.8523 19.4091C20.1629 19.6856 20.4034 20.0114 20.5739 20.3864C20.7481 20.7614 20.8371 21.1913 20.8409 21.6761C20.8371 22.3883 20.6553 23.0057 20.2955 23.5284C19.9394 24.0473 19.4242 24.4508 18.75 24.7386C18.0795 25.0227 17.2708 25.1648 16.3239 25.1648C15.3845 25.1648 14.5663 25.0208 13.8693 24.733C13.1761 24.4451 12.6345 24.0189 12.2443 23.4545C11.858 22.8864 11.6553 22.1837 11.6364 21.3466H14.017C14.0436 21.7367 14.1553 22.0625 14.3523 22.3239C14.553 22.5814 14.8201 22.7765 15.1534 22.9091C15.4905 23.0379 15.8712 23.1023 16.2955 23.1023C16.7121 23.1023 17.0739 23.0417 17.3807 22.9205C17.6913 22.7992 17.9318 22.6307 18.1023 22.4148C18.2727 22.1989 18.358 21.9508 18.358 21.6705C18.358 21.4091 18.2803 21.1894 18.125 21.0114C17.9735 20.8333 17.75 20.6818 17.4545 20.5568C17.1629 20.4318 16.8049 20.3182 16.3807 20.2159L15.1136 19.8977C14.1326 19.6591 13.358 19.286 12.7898 18.7784C12.2216 18.2708 11.9394 17.5871 11.9432 16.7273C11.9394 16.0227 12.1269 15.4072 12.5057 14.8807C12.8883 14.3542 13.4129 13.9432 14.0795 13.6477C14.7462 13.3523 15.5038 13.2045 16.3523 13.2045C17.2159 13.2045 17.9697 13.3523 18.6136 13.6477C19.2614 13.9432 19.7652 14.3542 20.125 14.8807C20.4848 15.4072 20.6705 16.017 20.6818 16.7102H18.3239Z" fill="black"/>
<rect y="47" width="33" height="39" rx="8" fill="#FF9F1C"/>
<path d="M13.517 72H10.8807L14.8977 60.3636H18.0682L22.0795 72H19.4432L16.5284 63.0227H16.4375L13.517 72ZM13.3523 67.4261H19.5795V69.3466H13.3523V67.4261Z" fill="black"/>
<rect y="94" width="33" height="39" rx="8" fill="#FFD60A"/>
<path d="M12.0114 119V107.364H16.6705C17.5265 107.364 18.2405 107.491 18.8125 107.744C19.3845 107.998 19.8144 108.35 20.1023 108.801C20.3902 109.248 20.5341 109.763 20.5341 110.347C20.5341 110.801 20.4432 111.201 20.2614 111.545C20.0795 111.886 19.8295 112.167 19.5114 112.386C19.197 112.602 18.8371 112.756 18.4318 112.847V112.96C18.875 112.979 19.2898 113.104 19.6761 113.335C20.0663 113.566 20.3826 113.89 20.625 114.307C20.8674 114.72 20.9886 115.212 20.9886 115.784C20.9886 116.402 20.8352 116.953 20.5284 117.438C20.2254 117.919 19.7765 118.299 19.1818 118.58C18.5871 118.86 17.8542 119 16.983 119H12.0114ZM14.4716 116.989H16.4773C17.1629 116.989 17.6629 116.858 17.9773 116.597C18.2917 116.331 18.4489 115.979 18.4489 115.54C18.4489 115.218 18.3712 114.934 18.2159 114.688C18.0606 114.441 17.839 114.248 17.5511 114.108C17.267 113.968 16.928 113.898 16.5341 113.898H14.4716V116.989ZM14.4716 112.233H16.2955C16.6326 112.233 16.9318 112.174 17.1932 112.057C17.4583 111.936 17.6667 111.765 17.8182 111.545C17.9735 111.326 18.0511 111.062 18.0511 110.756C18.0511 110.335 17.9015 109.996 17.6023 109.739C17.3068 109.481 16.8864 109.352 16.3409 109.352H14.4716V112.233Z" fill="black"/>
<rect y="141" width="33" height="39" rx="8" fill="#2EC4B6"/>
<path d="M21.2784 158.438H18.7898C18.7443 158.116 18.6515 157.83 18.5114 157.58C18.3712 157.326 18.1913 157.11 17.9716 156.932C17.7519 156.754 17.4981 156.617 17.2102 156.523C16.9261 156.428 16.6174 156.381 16.2841 156.381C15.6818 156.381 15.1572 156.53 14.7102 156.83C14.2633 157.125 13.9167 157.557 13.6705 158.125C13.4242 158.689 13.3011 159.375 13.3011 160.182C13.3011 161.011 13.4242 161.708 13.6705 162.273C13.9205 162.837 14.2689 163.263 14.7159 163.551C15.1629 163.839 15.6799 163.983 16.267 163.983C16.5966 163.983 16.9015 163.939 17.1818 163.852C17.4659 163.765 17.7178 163.638 17.9375 163.472C18.1572 163.301 18.339 163.095 18.483 162.852C18.6307 162.61 18.733 162.333 18.7898 162.023L21.2784 162.034C21.214 162.568 21.053 163.083 20.7955 163.58C20.5417 164.072 20.1989 164.513 19.767 164.903C19.339 165.29 18.8277 165.597 18.233 165.824C17.642 166.047 16.9735 166.159 16.2273 166.159C15.1894 166.159 14.2614 165.924 13.4432 165.455C12.6288 164.985 11.9848 164.305 11.5114 163.415C11.0417 162.525 10.8068 161.447 10.8068 160.182C10.8068 158.913 11.0455 157.833 11.5227 156.943C12 156.053 12.6477 155.375 13.4659 154.909C14.2841 154.439 15.2045 154.205 16.2273 154.205C16.9015 154.205 17.5265 154.299 18.1023 154.489C18.6818 154.678 19.1951 154.955 19.642 155.318C20.089 155.678 20.4527 156.119 20.733 156.642C21.017 157.165 21.1989 157.763 21.2784 158.438Z" fill="black"/>
<rect x="43" width="261" height="39" rx="8" fill="#9E9E9E"/>
<rect x="43" y="47" width="178" height="39" rx="8" fill="#9E9E9E"/>
<rect x="43" y="94" width="206" height="39" rx="8" fill="#9E9E9E"/>
<rect x="43" y="141" width="134" height="39" rx="8" fill="#9E9E9E"/>
</svg>
